<svg aria-hidden="true" style="position: absolute; width: 0; height: 0; overflow: hidden;" version="1.1" xmlns="http://www.w3.org/2000/svg" xmlns:xlink="http://www.w3.org/1999/xlink">
<defs>
<symbol id="icon-send" viewBox="0 0 38 32">
<path fill="#fff" style="fill: var(--color1, #fff)" d="M38.4 0l-38.4 18 12.272 3.788 18.928-14.788-14.397 16.186 0.012 0.004-0.014-0.004v8.814l6.882-6.691 8.718 2.691 6-28z"></path>
</symbol>
<symbol id="icon-check" viewBox="0 0 32 32">
<path fill="#404bbf" style="fill: var(--color2, #404bbf)" d="M4.020 1.26h23.98c1.524 0 2.76 1.236 2.76 2.76v23.98c0 1.524-1.236 2.76-2.76 2.76h-23.98c-1.524 0-2.76-1.236-2.76-2.76v-23.98c0-1.524 1.236-2.76 2.76-2.76z"></path>
<path fill="#f4f4fd" style="fill: var(--color3, #f4f4fd)" d="M22.9 8.52c0.328-0.31 0.773-0.5 1.261-0.5 0.995 0 1.806 0.79 1.839 1.777l0 0.003c0 0.48-0.16 0.94-0.48 1.3l-9.8 12.3c-0.337 0.363-0.817 0.589-1.349 0.589-0.503 0-0.959-0.202-1.291-0.529l0 0-6.5-6.52c-0.337-0.334-0.546-0.798-0.546-1.31 0-1.019 0.826-1.846 1.846-1.846 0.507 0 0.967 0.205 1.3 0.536l-0-0 5.14 5.16 8.52-10.92 0.060-0.040z"></path>
<path fill="#404bbf" style="fill: var(--color2, #404bbf)" d="M4.020 0.010c-2.2 0-4.010 1.81-4.010 4.010v23.98c0 2.2 1.81 4.010 4.010 4.010h23.98c2.2 0 4.010-1.81 4.010-4.010v-23.98c0-2.2-1.81-4.010-4.010-4.010zM4.020 2.51h23.98c0.849 0 1.51 0.661 1.51 1.51v23.98c0 0.849-0.661 1.51-1.51 1.51h-23.98c-0.849 0-1.51-0.661-1.51-1.51v-23.98c0-0.849 0.661-1.51 1.51-1.51z"></path>
</symbol>
<symbol id="icon-email" viewBox="0 0 24 32">
<path d="M20 8h-16c-1.107 0-2 0.893-2 2v12c0 1.093 0.893 2 2 2h16c1.093 0 2-0.907 2-2v-12c0-1.107-0.907-2-2-2zM19.6 12.253l-7.067 4.413c-0.152 0.095-0.336 0.152-0.533 0.152s-0.382-0.056-0.538-0.154l0.004 0.002-7.067-4.4c-0.273-0.146-0.455-0.429-0.455-0.755 0-0.471 0.382-0.853 0.853-0.853 0.192 0 0.368 0.063 0.511 0.17l-0.002-0.002 6.693 4.173 6.707-4.187c0.145-0.116 0.33-0.187 0.533-0.187 0.471 0 0.853 0.382 0.853 0.853 0 0.34-0.199 0.634-0.488 0.771l-0.005 0.002z"></path>
</symbol>
<symbol id="icon-phone" viewBox="0 0 24 32">
<path d="M19.64 18.493l-2.453-0.28c-0.587-0.080-1.173 0.133-1.587 0.533l-1.773 1.787c-2.752-1.42-4.94-3.608-6.322-6.279l-0.038-0.081 1.787-1.787c0.413-0.413 0.613-0.987 0.547-1.587l-0.267-2.427c-0.117-0.966-0.932-1.707-1.92-1.707-0.005 0-0.009 0-0.014 0h-1.666c-1.093 0-2 0.907-1.933 2 0.537 8.244 7.090 14.797 15.285 15.331l0.049 0.003c1.093 0.067 2-0.84 2-1.933v-1.667c0-0.973-0.72-1.8-1.693-1.907z"></path>
</symbol>
<symbol id="icon-person" viewBox="0 0 32 32">
<path d="M16 16c2.946 0 5.333-2.388 5.333-5.333s-2.388-5.333-5.333-5.333v0c-2.946 0-5.333 2.388-5.333 5.333s2.388 5.333 5.333 5.333v0zM16 18.667c-3.556 0-10.667 1.778-10.667 5.333v1.333c0 0.729 0.604 1.333 1.333 1.333h18.667c0.729 0 1.333-0.604 1.333-1.333v-1.333c0-3.556-7.111-5.333-10.667-5.333z"></path>
</symbol>
<symbol id="icon-mobile-menu-btn" viewBox="0 0 47 32">
<path d="M1.96-0.105c-1.205 0-2.182 0.977-2.182 2.182v0c0 1.205 0.977 2.182 2.182 2.182h42.966c1.205 0 2.182-0.977 2.182-2.182v0c0-1.205-0.977-2.182-2.182-2.182v0zM1.96 13.435c-1.205 0-2.182 0.977-2.182 2.182v0c0 1.205 0.977 2.182 2.182 2.182h42.966c1.205 0 2.182-0.977 2.182-2.182v0c0-1.205-0.977-2.182-2.182-2.182v0zM1.96 26.972c-1.205 0-2.182 0.977-2.182 2.182v0c0 1.205 0.977 2.182 2.182 2.182h42.966c1.205 0 2.182-0.977 2.182-2.182v0c0-1.205-0.977-2.182-2.182-2.182v0z"></path>
</symbol>
<symbol id="icon-close" viewBox="0 0 32 32">
<path d="M32 3.2l-3.2-3.2-12.8 12.8-12.8-12.8-3.2 3.2 12.8 12.8-12.8 12.8 3.2 3.2 12.8-12.8 12.8 12.8 3.2-3.2-12.8-12.8 12.8-12.8z"></path>
</symbol>
<symbol id="icon-Logo-1" viewBox="0 0 59 32">
<path d="M28.634 3.389h-0.074l-0.36-0.011h-0.263c-0.017-0-0.036-0-0.056-0-0.242 0-0.482 0.006-0.72 0.019l0.033-0.001c-2.080 0.114-4.114 0.64-6.006 1.531l-0.246 0.12v12.651l0.577-0.194c1.852-0.667 3.99-1.065 6.216-1.091l0.012-0v1.663l-0.606 0.017h-0.046c-2.881 0.16-5.544 0.956-7.896 2.248l0.096-0.048v-16.234c1.282-0.76 2.764-1.38 4.334-1.78l0.118-0.025c1.256-0.337 2.698-0.532 4.186-0.537h0.249c1.043 0.003 2.052 0.139 3.015 0.39l-0.084-0.019v1.64c-0.582-0.144-1.273-0.253-1.98-0.306l-0.043-0.003h-0.040c-0.143-0.011-0.286-0.029-0.417-0.029zM31.514 5.063c0.323 0.021 0.7 0.032 1.080 0.032 1.579 0 3.111-0.204 4.571-0.586l-0.125 0.028c1.611-0.41 3.022-0.976 4.334-1.699l-0.094 0.047v15.937c-1.281 0.762-2.764 1.383-4.333 1.786l-0.118 0.026c-1.371 0.349-2.777 0.531-4.189 0.537-0.029 0-0.063 0-0.097 0-1.096 0-2.159-0.138-3.174-0.397l0.089 0.019v-16.040c0.593 0.145 1.296 0.254 2.015 0.306l0.042 0.002zM39.629 5.189l-0.577 0.194c-1.919 0.691-4.133 1.090-6.441 1.090-0.361 0-0.721-0.010-1.077-0.029l0.050 0.002-0.469-0.029v13.011l0.4 0.034c0.331 0.025 0.716 0.040 1.105 0.040 1.353 0 2.666-0.175 3.916-0.504l-0.107 0.024c1.131-0.291 2.112-0.656 3.042-1.11l-0.094 0.041 0.251-0.114v-12.651z"></path>
<path d="M20.423 25.834c-0.156-0.159-0.373-0.258-0.613-0.258-0.012 0-0.023 0-0.035 0.001l0.002-0c-0.126 0-0.251 0.023-0.371 0.069-0.321 0.129-0.544 0.437-0.544 0.798 0 0.015 0 0.030 0.001 0.044l-0-0.002v2.171c0 0.149 0.023 0.303 0.086 0.44 0.057 0.114 0.126 0.211 0.217 0.291 0.086 0.074 0.189 0.126 0.297 0.154s0.217 0.046 0.326 0.046c0.498-0.010 0.897-0.415 0.897-0.914 0-0 0-0 0-0v0-0.24h-0.571v0.189c0.006 0.069 0 0.137-0.029 0.194-0.018 0.049-0.045 0.091-0.080 0.126v0c-0.065 0.049-0.146 0.079-0.234 0.080h-0c-0.011 0.002-0.025 0.003-0.038 0.003-0.094 0-0.178-0.046-0.23-0.116l-0.001-0.001c-0.050-0.078-0.080-0.173-0.080-0.276 0-0.005 0-0.011 0-0.016l-0 0.001v-2.023c0-0.114 0.023-0.223 0.074-0.32 0.051-0.081 0.14-0.133 0.242-0.133 0.012 0 0.023 0.001 0.034 0.002l-0.001-0c0.003-0 0.006-0 0.010-0 0.098 0 0.186 0.047 0.241 0.119l0.001 0.001c0.061 0.077 0.097 0.175 0.097 0.282 0 0.001 0 0.003-0 0.004v-0 0.194h0.56v-0.223c0-0.002 0-0.005 0-0.008 0-0.261-0.098-0.499-0.258-0.679l0.001 0.001zM23.789 25.811c-0.174-0.146-0.4-0.234-0.647-0.234-0.12 0-0.236 0.021-0.342 0.059l0.007-0.002c-0.114 0.040-0.211 0.097-0.297 0.171-0.097 0.091-0.171 0.194-0.223 0.309-0.057 0.131-0.086 0.274-0.080 0.423v2.074c-0.006 0.149 0.023 0.291 0.080 0.429 0.051 0.114 0.126 0.211 0.223 0.286 0.086 0.086 0.183 0.149 0.297 0.189 0.1 0.037 0.216 0.059 0.337 0.059s0.237-0.022 0.344-0.061l-0.007 0.002c0.353-0.122 0.602-0.451 0.602-0.839 0-0.020-0.001-0.041-0.002-0.061l0 0.003v-2.080c0.001-0.012 0.001-0.026 0.001-0.040 0-0.27-0.114-0.514-0.297-0.685l-0.001-0zM23.526 28.611c0.001 0.009 0.001 0.020 0.001 0.031 0 0.107-0.044 0.203-0.115 0.272l-0 0c-0.072 0.059-0.164 0.096-0.266 0.096s-0.194-0.036-0.266-0.096l0.001 0.001c-0.071-0.068-0.116-0.163-0.116-0.269 0-0.012 0.001-0.023 0.002-0.035l-0 0.001v-2.074c-0.001-0.010-0.002-0.022-0.002-0.033 0-0.106 0.044-0.202 0.116-0.269l0-0c0.072-0.059 0.164-0.096 0.266-0.096s0.194 0.036 0.266 0.096l-0.001-0.001c0.071 0.068 0.116 0.163 0.116 0.269 0 0.012-0.001 0.023-0.002 0.035l0-0.001v2.074zM28.211 29.543v-3.943h-0.549l-0.714 2.086h-0.011l-0.72-2.086h-0.537v3.937h0.56v-2.4h0.011l0.549 1.697h0.286l0.554-1.691h0.006v2.394h0.566zM31.406 25.886c-0.086-0.103-0.194-0.171-0.32-0.217-0.117-0.040-0.251-0.063-0.391-0.063-0.005 0-0.010 0-0.016 0h-0.834v3.937h0.56v-1.543h0.286c0.177 0.011 0.349-0.023 0.509-0.103 0.227-0.142 0.387-0.371 0.433-0.64l0.001-0.006c0.022-0.132 0.035-0.285 0.035-0.44 0-0.2-0.021-0.395-0.061-0.584l0.003 0.018c-0.039-0.143-0.11-0.266-0.206-0.366l0 0zM31.12 27.086c-0.006 0.069-0.023 0.137-0.057 0.2-0.034 0.057-0.080 0.114-0.143 0.137-0.073 0.036-0.159 0.057-0.249 0.057-0.005 0-0.009-0-0.014-0h-0.256v-1.343h0.286c0.091 0 0.171 0.011 0.257 0.051 0.057 0.029 0.103 0.080 0.131 0.143 0.028 0.064 0.045 0.139 0.046 0.217v0.538zM34.057 25.606h-0.457l-0.857 3.937h0.56l0.166-0.846h0.76l0.171 0.846h0.554l-0.886-3.937zM33.543 28.16l0.28-1.429h0.006l0.274 1.429h-0.56zM37.686 27.977h-0.011l-0.846-2.371h-0.537v3.937h0.56v-2.366h0.011l0.851 2.366h0.526v-3.943h-0.56v2.371zM41.114 25.606l-0.457 1.566h-0.006l-0.457-1.566h-0.589l0.771 2.274v1.657h0.56v-1.657l0.771-2.274h-0.594zM18.857 30.651h0.269v0.76h0.183v-0.76h0.269v-0.154h-0.72v0.154zM21.131 30.497l-0.354 0.914h0.194l0.074-0.206h0.366l0.074 0.206h0.2l-0.36-0.914h-0.194zM21.103 31.051l0.12-0.343 0.126 0.343h-0.246zM23.371 31.074h0.217v0.114c-0.059 0.049-0.134 0.079-0.217 0.080h-0c-0.005 0-0.010 0.001-0.015 0.001-0.072 0-0.137-0.034-0.178-0.086l-0-0c-0.043-0.061-0.069-0.137-0.069-0.219 0-0.007 0-0.014 0.001-0.022l-0 0.001c0-0.2 0.086-0.303 0.263-0.303 0.005-0.001 0.012-0.001 0.018-0.001 0.089 0 0.165 0.060 0.187 0.142l0 0.001 0.183-0.034c-0.040-0.177-0.171-0.269-0.389-0.269-0.005-0-0.011-0-0.017-0-0.116 0-0.223 0.043-0.303 0.115l0-0c-0.082 0.081-0.133 0.193-0.133 0.318 0 0.013 0.001 0.026 0.002 0.038l-0-0.002c0 0.126 0.034 0.251 0.114 0.343 0.081 0.085 0.196 0.138 0.322 0.138 0.009 0 0.018-0 0.027-0.001l-0.001 0c0.143 0 0.286-0.051 0.389-0.149v-0.36h-0.4v0.154zM25.669 30.497h-0.183v0.914h0.64v-0.154h-0.457v-0.76zM27.611 30.497h-0.189v0.914h0.189v-0.914zM29.509 31.109l-0.377-0.611h-0.177v0.914h0.171v-0.594l0.366 0.594h0.183v-0.914h-0.171v0.611zM31.223 31.011h0.457v-0.154h-0.457v-0.206h0.486v-0.154h-0.674v0.914h0.697v-0.154h-0.514v-0.246zM35.377 30.857h-0.36v-0.36h-0.183v0.914h0.183v-0.4h0.36v0.4h0.183v-0.914h-0.183v0.36zM37.103 31.011h0.457v-0.154h-0.457v-0.206h0.491v-0.154h-0.674v0.914h0.691v-0.154h-0.509v-0.246zM39.44 31.011c0.16-0.029 0.24-0.114 0.24-0.257 0.001-0.008 0.002-0.017 0.002-0.026 0-0.071-0.034-0.134-0.087-0.174l-0.001-0c-0.069-0.037-0.151-0.058-0.237-0.058-0.011 0-0.022 0-0.033 0.001l0.001-0h-0.389v0.914h0.183v-0.383h0.034c0.040 0 0.080 0.006 0.114 0.023 0.029 0.017 0.057 0.040 0.069 0.069l0.2 0.286h0.217l-0.114-0.171c-0.046-0.091-0.114-0.171-0.2-0.229zM39.257 30.886h-0.137v-0.229h0.143c0.063-0.006 0.131 0 0.189 0.017 0.029 0.021 0.047 0.055 0.047 0.092 0 0.040-0.021 0.076-0.052 0.096l-0 0c-0.047 0.015-0.1 0.024-0.156 0.024-0.012 0-0.023-0-0.034-0.001l0.002 0zM41.206 31.011h0.457v-0.154h-0.457v-0.206h0.491v-0.154h-0.674v0.914h0.691v-0.154h-0.509v-0.246z"></path>
</symbol>
<symbol id="icon-Logo-2" viewBox="0 0 59 32">
<path d="M21.034 28.126l0.029 0.006 0.023 0.017 0.126 0.114c-0.103 0.097-0.223 0.171-0.354 0.229-0.16 0.057-0.331 0.086-0.509 0.080-0.16 0-0.32-0.023-0.469-0.074-0.268-0.088-0.48-0.285-0.586-0.537l-0.002-0.006c-0.053-0.123-0.083-0.266-0.083-0.416 0-0.155 0.033-0.303 0.092-0.436l-0.003 0.007c0.057-0.12 0.137-0.234 0.246-0.331 0.109-0.091 0.234-0.166 0.377-0.211 0.143-0.050 0.308-0.078 0.48-0.078 0.165 0 0.325 0.027 0.473 0.076l-0.011-0.003c0.12 0.046 0.24 0.114 0.337 0.189l-0.109 0.126c-0.006 0.009-0.014 0.016-0.023 0.023l-0 0c-0.011 0.007-0.025 0.012-0.040 0.012-0.002 0-0.004-0-0.006-0l0 0c-0.017-0.002-0.033-0.008-0.046-0.017l0 0-0.057-0.029-0.074-0.046c-0.117-0.058-0.255-0.092-0.4-0.092-0.014 0-0.028 0-0.042 0.001l0.002-0c-0.114 0-0.24 0.023-0.349 0.057-0.207 0.065-0.371 0.214-0.455 0.407l-0.002 0.005c-0.040 0.114-0.063 0.229-0.057 0.343-0.001 0.012-0.001 0.026-0.001 0.039 0 0.325 0.208 0.601 0.499 0.702l0.005 0.002c0.097 0.034 0.206 0.057 0.32 0.057l0.194-0.011c0.158-0.017 0.299-0.079 0.413-0.172l-0.001 0.001c0.016-0.016 0.038-0.027 0.063-0.029h0zM24.68 27.531c0 0.143-0.029 0.286-0.086 0.417-0.057 0.126-0.131 0.234-0.24 0.326-0.103 0.097-0.229 0.171-0.371 0.217-0.309 0.097-0.651 0.097-0.96 0-0.143-0.051-0.267-0.124-0.373-0.218l0.001 0.001c-0.101-0.089-0.182-0.197-0.238-0.32l-0.002-0.006c-0.114-0.274-0.114-0.571 0-0.84 0.057-0.126 0.137-0.234 0.24-0.331 0.109-0.091 0.229-0.16 0.371-0.206 0.143-0.049 0.308-0.077 0.48-0.077s0.337 0.028 0.491 0.080l-0.011-0.003c0.137 0.046 0.269 0.12 0.371 0.211 0.2 0.178 0.326 0.436 0.326 0.723 0 0.009-0 0.018-0 0.026l0-0.001zM24.349 27.531c0-0.114-0.017-0.229-0.057-0.337-0.077-0.197-0.237-0.347-0.435-0.41l-0.005-0.001c-0.229-0.074-0.474-0.074-0.697 0-0.103 0.034-0.194 0.091-0.269 0.16-0.074 0.074-0.131 0.16-0.171 0.251-0.080 0.217-0.080 0.457 0 0.674 0.077 0.197 0.236 0.348 0.435 0.41l0.005 0.001c0.229 0.069 0.474 0.069 0.697 0 0.2-0.067 0.357-0.217 0.433-0.407l0.002-0.005c0.046-0.109 0.063-0.223 0.057-0.337zM27.166 27.886l0.029 0.074 0.080-0.149 0.806-1.257 0.046-0.034c0.016-0.004 0.034-0.006 0.053-0.006 0.006 0 0.011 0 0.017 0.001l-0.001-0h0.234v2.034h-0.286v-1.629l-0.806 1.269c-0.011 0.019-0.026 0.035-0.045 0.045l-0.001 0c-0.020 0.011-0.043 0.017-0.068 0.017-0 0-0 0-0.001 0h-0.046c-0.002 0-0.004 0-0.006 0-0.025 0-0.048-0.006-0.069-0.018l0.001 0c-0.019-0.011-0.035-0.026-0.045-0.045l-0-0.001-0.834-1.28v1.634h-0.274v-2.029h0.24l0.069 0.006c0.017 0.006 0.034 0.023 0.040 0.040l0.823 1.257c0.017 0.017 0.034 0.040 0.046 0.069zM30.194 27.783v0.766h-0.314v-2.034h0.703c0.137 0 0.269 0.011 0.4 0.046 0.097 0.023 0.194 0.063 0.274 0.126 0.069 0.057 0.12 0.12 0.154 0.2 0.040 0.080 0.057 0.171 0.057 0.257 0 0.002 0 0.004 0 0.006 0 0.186-0.089 0.352-0.227 0.456l-0.001 0.001c-0.086 0.063-0.177 0.109-0.286 0.137-0.114 0.034-0.246 0.051-0.377 0.046h-0.383zM30.194 27.566h0.383c0.086 0 0.171-0.011 0.246-0.029 0.068-0.021 0.127-0.052 0.178-0.092l-0.001 0.001c0.087-0.071 0.143-0.178 0.143-0.298 0-0.004-0-0.007-0-0.011v0.001c0-0.006 0.001-0.014 0.001-0.021 0-0.050-0.011-0.098-0.030-0.141l0.001 0.002c-0.027-0.057-0.066-0.105-0.113-0.142l-0.001-0.001c-0.105-0.069-0.234-0.11-0.373-0.11-0.017 0-0.035 0.001-0.052 0.002l0.002-0h-0.383v0.84zM34.434 28.549h-0.246c-0.002 0-0.004 0-0.006 0-0.023 0-0.044-0.006-0.063-0.018l0.001 0c-0.017-0.012-0.030-0.027-0.040-0.045l-0-0.001-0.217-0.497h-1.080l-0.217 0.497c-0.009 0.019-0.023 0.034-0.040 0.045l-0 0c-0.018 0.011-0.040 0.018-0.063 0.018-0.004 0-0.008-0-0.012-0.001l0.001 0h-0.246l0.937-2.034h0.331l0.954 2.034zM32.874 27.794h0.891l-0.377-0.829c-0.029-0.063-0.051-0.126-0.069-0.194l-0.040 0.109-0.034 0.086-0.371 0.829zM35.8 26.52l0.046 0.040 1.383 1.531v-1.577h0.286v2.034h-0.16c-0.023 0-0.046 0-0.069-0.011-0.020-0.010-0.037-0.024-0.051-0.040l-0-0-1.371-1.531v1.583h-0.286v-2.034h0.166l0.057 0.006zM39.834 27.737v0.811h-0.314v-0.811l-0.874-1.223h0.286c0.001-0 0.002-0 0.003-0 0.022 0 0.043 0.006 0.061 0.017l-0-0 0.046 0.046 0.543 0.789c0.034 0.052 0.067 0.112 0.094 0.175l0.003 0.008 0.040-0.086 0.057-0.097 0.537-0.8c0.012-0.015 0.025-0.028 0.039-0.040l0.001-0c0.017-0.011 0.037-0.018 0.059-0.018 0.003 0 0.007 0 0.010 0l-0-0h0.286l-0.874 1.229zM27.006 23.097l0.417 0.034c2.106-0.791 3.86-2.111 5.157-3.801l0.020-0.027c1.149-1.503 1.841-3.409 1.841-5.476 0-0.056-0.001-0.111-0.002-0.167l0 0.008-2.343-2c0.154 0.66 0.243 1.419 0.243 2.198 0 1.498-0.327 2.919-0.915 4.196l0.026-0.063c-0.991 2.121-2.513 3.852-4.399 5.069l-0.047 0.029z"></path>
<path d="M26.171 23l0.057 0.011c2.149-1.309 3.783-3.137 4.697-5.246 0.914-2.114 1.063-4.411 0.429-6.594l-3.337-2.857c1.349 2.343 1.891 4.971 1.566 7.571-0.385 2.783-1.614 5.227-3.416 7.12l0.005-0.005zM37.503 16.023c-0.571 2.189-1.949 4.166-3.931 5.629-0.583 0.429-1.206 0.817-1.869 1.143 1.664-0.415 3.119-1.138 4.369-2.111l-0.026 0.020c1.193-0.927 2.146-2.107 2.787-3.462l0.025-0.058-1.354-1.16z"></path>
<path d="M36.971 15.703l-1.931-1.651c-0.053 2.006-0.724 3.846-1.83 5.346l0.018-0.026c-1.212 1.639-2.803 2.933-4.646 3.764l-0.074 0.030h0.006c0.434 0 0.869-0.017 1.297-0.063 1.832-0.634 3.395-1.638 4.667-2.93l0.002-0.002c1.182-1.201 2.051-2.713 2.472-4.402l0.014-0.066zM26.451 7.114l-2.303-1.971c-2.047 0.663-3.771 1.853-5.066 3.411l-0.014 0.018c-1.179 1.424-1.902 3.262-1.926 5.269l-0 0.005c0.033 2.229 0.914 4.246 2.335 5.747l-0.004-0.004c1.503 1.64 3.6 2.8 5.966 3.309 2.114-2.2 3.349-4.914 3.531-7.754 0.177-2.834-0.703-5.651-2.52-8.029zM42.286 15.4c-0.006-2.474-1.16-4.84-3.2-6.589-2.051-1.704-4.711-2.738-7.613-2.738-0.036 0-0.071 0-0.107 0l0.005-0c-1.331 0-2.657 0.211-3.903 0.623l14.086 12.040c0.46-0.979 0.729-2.126 0.731-3.336v-0.001z"></path>
</symbol>
<symbol id="icon-Logo-3" viewBox="0 0 59 32">
<path d="M13.76 12.297c-1.366 0-2.469 0.994-2.469 2.229 0 1.229 1.103 2.223 2.469 2.223 1.36 0 2.469-0.994 2.469-2.229 0-1.229-1.109-2.229-2.469-2.229zM31.977 11.583c0-1.703-0.754-3.343-2.097-4.549-1.327-1.174-3.083-1.892-5.007-1.892-0.014 0-0.028 0-0.041 0h0.002c-1.891 0-3.709 0.686-5.046 1.886-1.271 1.118-2.075 2.74-2.097 4.55l-0 0.004v9.417s14.286-1.434 14.286-9.411zM6.286 24.086c0.015 1.263 0.574 2.393 1.452 3.167l0.005 0.004c0.924 0.816 2.146 1.314 3.484 1.314 0.011 0 0.021-0 0.032-0h-0.002c1.314 0 2.577-0.474 3.509-1.314 0.884-0.777 1.445-1.904 1.463-3.163l0-0.003v-6.554s-9.943 1-9.943 6.549zM11.257 25.263c-0.257 0-0.514-0.069-0.726-0.2-0.209-0.125-0.373-0.304-0.477-0.518l-0.003-0.007c-0.063-0.132-0.099-0.287-0.099-0.45 0-0.082 0.009-0.161 0.026-0.237l-0.001 0.007c0.057-0.241 0.185-0.446 0.359-0.599l0.001-0.001c0.183-0.166 0.411-0.274 0.663-0.32 0.257-0.046 0.514-0.023 0.754 0.069 0.24 0.086 0.44 0.24 0.583 0.429 0.138 0.181 0.22 0.41 0.22 0.658 0 0.331-0.147 0.627-0.379 0.827l-0.001 0.001c-0.114 0.114-0.263 0.2-0.423 0.257-0.154 0.057-0.326 0.091-0.497 0.091v-0.006zM20.343 23.154v2.434h-0.497v-2.44h0.503zM21.314 24.194v0.389h-1.103v-0.389h1.109zM21.434 23.149v0.4h-1.223v-0.4h1.223zM23.731 24.314v0.114c0 0.183-0.029 0.354-0.074 0.497-0.057 0.149-0.126 0.274-0.217 0.377s-0.2 0.183-0.326 0.24c-0.126 0.057-0.269 0.080-0.423 0.080-0.012 0.001-0.026 0.001-0.040 0.001-0.282 0-0.535-0.124-0.708-0.32l-0.001-0.001c-0.091-0.103-0.16-0.229-0.211-0.377-0.051-0.146-0.080-0.315-0.080-0.49 0-0.002 0-0.005 0-0.007v0-0.114c0-0.189 0.029-0.354 0.080-0.497 0.046-0.149 0.114-0.274 0.211-0.377 0.091-0.109 0.2-0.183 0.326-0.24s0.269-0.080 0.423-0.080 0.291 0.023 0.417 0.080c0.131 0.057 0.24 0.131 0.331 0.24 0.091 0.103 0.16 0.229 0.211 0.377 0.057 0.143 0.080 0.309 0.080 0.497zM23.217 24.429v-0.114c0-0.131-0.006-0.246-0.029-0.343-0.020-0.095-0.056-0.179-0.105-0.254l0.002 0.003c-0.081-0.122-0.217-0.201-0.372-0.201-0.010 0-0.019 0-0.029 0.001l0.001-0c-0.005-0-0.010-0-0.016-0-0.157 0-0.295 0.079-0.377 0.199l-0.001 0.002c-0.040 0.069-0.074 0.149-0.097 0.246-0.023 0.103-0.034 0.217-0.034 0.343v0.12c0 0.131 0.011 0.24 0.034 0.343 0.023 0.097 0.057 0.183 0.103 0.246 0.046 0.069 0.103 0.12 0.171 0.154 0.063 0.034 0.137 0.057 0.229 0.057 0.080 0 0.154-0.023 0.223-0.057 0.068-0.037 0.124-0.090 0.165-0.152l0.001-0.002c0.046-0.063 0.080-0.149 0.103-0.246 0.023-0.103 0.034-0.217 0.034-0.343zM25.36 24.949c0-0.003 0-0.007 0-0.010 0-0.037-0.006-0.073-0.018-0.106l0.001 0.002c-0.016-0.040-0.041-0.072-0.074-0.097l-0.001-0-0.143-0.091c-0.063-0.029-0.143-0.057-0.246-0.086l-0.314-0.12c-0.1-0.046-0.187-0.1-0.266-0.162l0.003 0.002c-0.074-0.057-0.131-0.131-0.171-0.206-0.043-0.078-0.069-0.172-0.069-0.272 0-0.003 0-0.006 0-0.009v0c0-0.001 0-0.002 0-0.003 0-0.099 0.025-0.193 0.070-0.274l-0.002 0.003c0.046-0.086 0.109-0.154 0.189-0.217 0.080-0.057 0.171-0.103 0.286-0.137 0.103-0.029 0.221-0.046 0.342-0.046 0.177 0 0.347 0.036 0.5 0.101l-0.008-0.003c0.131 0.063 0.234 0.149 0.309 0.263s0.114 0.24 0.114 0.389h-0.503c0-0.003 0-0.005 0-0.008 0-0.066-0.017-0.128-0.047-0.182l0.001 0.002c-0.031-0.054-0.076-0.097-0.13-0.125l-0.002-0.001c-0.063-0.033-0.137-0.052-0.216-0.052-0.004 0-0.009 0-0.013 0h0.001c-0.004-0-0.008-0-0.012-0-0.072 0-0.14 0.015-0.203 0.041l0.003-0.001c-0.055 0.023-0.1 0.060-0.131 0.108l-0.001 0.001c-0.029 0.041-0.046 0.092-0.046 0.146 0 0.001 0 0.002 0 0.002v-0c0 0.040 0.011 0.074 0.029 0.114l0.097 0.091c0.102 0.058 0.221 0.112 0.345 0.155l0.015 0.005c0.131 0.034 0.251 0.080 0.349 0.131 0.103 0.051 0.189 0.109 0.257 0.171 0.127 0.115 0.206 0.281 0.206 0.465 0 0.005-0 0.010-0 0.016v-0.001c0 0.103-0.023 0.2-0.057 0.286-0.046 0.080-0.109 0.154-0.183 0.211-0.080 0.057-0.171 0.103-0.286 0.131-0.102 0.027-0.219 0.043-0.34 0.043-0.257 0-0.496-0.071-0.701-0.195l0.006 0.003c-0.097-0.063-0.171-0.149-0.229-0.246-0.057-0.103-0.086-0.223-0.086-0.36h0.503c0 0.080 0.011 0.143 0.034 0.194 0.029 0.057 0.057 0.097 0.103 0.126 0.040 0.034 0.091 0.057 0.154 0.074 0.057 0.011 0.126 0.023 0.194 0.023 0.086 0 0.16-0.017 0.217-0.040 0.098-0.040 0.166-0.134 0.166-0.244 0-0.003-0-0.005-0-0.008v0zM27.291 23.154v2.434h-0.497v-2.44h0.497zM28.046 23.154v0.389h-1.989v-0.394h1.989zM29.966 25.2v0.389h-1.297v-0.389h1.297zM28.834 23.149v2.44h-0.503v-2.44h0.503zM29.794 24.143v0.383h-1.126v-0.383h1.126zM29.966 23.154v0.389h-1.297v-0.394h1.297zM30.257 23.154h0.914c0.183 0 0.343 0.023 0.474 0.080 0.137 0.057 0.24 0.137 0.314 0.251 0.074 0.109 0.109 0.24 0.109 0.4 0 0.131-0.023 0.246-0.069 0.337-0.040 0.091-0.103 0.171-0.183 0.229-0.080 0.063-0.171 0.114-0.286 0.154l-0.154 0.080h-0.789v-0.389h0.583c0.002 0 0.004 0 0.006 0 0.077 0 0.15-0.019 0.213-0.053l-0.003 0.001c0.057-0.029 0.103-0.074 0.131-0.126 0.029-0.054 0.046-0.118 0.046-0.186 0-0.003-0-0.006-0-0.009v0c0-0.003 0-0.007 0-0.010 0-0.071-0.017-0.139-0.047-0.198l0.001 0.003c-0.029-0.057-0.074-0.103-0.13-0.131l-0.002-0.001c-0.060-0.029-0.131-0.046-0.206-0.046-0.006 0-0.012 0-0.017 0l0.001-0h-0.4v2.046h-0.509v-2.44zM31.623 25.589l-0.56-1.086h0.531l0.566 1.063v0.023h-0.537zM34.257 24.72h-0.623v-0.394h0.629c0.005 0 0.010 0 0.016 0 0.077 0 0.15-0.017 0.216-0.047l-0.003 0.001c0.057-0.029 0.103-0.074 0.131-0.131s0.046-0.12 0.046-0.194c-0.001-0.073-0.018-0.141-0.047-0.203l0.001 0.003c-0.028-0.064-0.073-0.117-0.13-0.153l-0.001-0.001c-0.062-0.036-0.136-0.057-0.216-0.057-0.005 0-0.009 0-0.014 0l0.001-0h-0.457v2.046h-0.497v-2.44h0.949c0.194 0 0.354 0.040 0.491 0.109 0.252 0.122 0.423 0.377 0.423 0.671 0 0.009-0 0.019-0.001 0.028l0-0.001c0 0.154-0.034 0.286-0.109 0.406-0.074 0.114-0.177 0.206-0.314 0.269-0.137 0.057-0.297 0.091-0.491 0.091zM37.154 25.2v0.389h-1.297v-0.389h1.297zM36.023 23.149v2.44h-0.503v-2.44h0.503zM36.983 24.143v0.383h-1.126v-0.383h1.126zM37.154 23.154v0.389h-1.297v-0.394h1.297zM38.571 23.154v2.434h-0.503v-2.44h0.503zM39.32 23.154v0.389h-1.989v-0.394h1.989zM41.24 25.2v0.389h-1.297v-0.389h1.297zM40.114 23.143v2.44h-0.503v-2.44h0.503zM41.080 24.137v0.383h-1.137v-0.383h1.131zM41.251 23.149v0.389h-1.309v-0.394h1.297zM41.537 23.149h0.914c0.183 0 0.343 0.023 0.48 0.080 0.131 0.057 0.24 0.137 0.309 0.251 0.074 0.109 0.114 0.24 0.114 0.4 0 0.131-0.029 0.246-0.069 0.337-0.046 0.091-0.109 0.171-0.189 0.229-0.080 0.063-0.171 0.114-0.28 0.154l-0.16 0.080h-0.789v-0.389h0.583c0.004 0 0.008 0 0.012 0 0.077 0 0.15-0.019 0.213-0.053l-0.002 0.001c0.057-0.029 0.103-0.074 0.131-0.126 0.029-0.054 0.046-0.118 0.046-0.186 0-0.003-0-0.006-0-0.009v0c0-0.003 0-0.007 0-0.010 0-0.071-0.017-0.139-0.047-0.198l0.001 0.003c-0.029-0.057-0.074-0.103-0.13-0.131l-0.002-0.001c-0.061-0.029-0.132-0.046-0.207-0.046-0.008 0-0.015 0-0.023 0.001l0.001-0h-0.4v2.046h-0.503v-2.44zM42.909 25.583l-0.56-1.086h0.531l0.56 1.063v0.023h-0.537zM45.006 24.943c0-0.003 0-0.007 0-0.010 0-0.037-0.006-0.073-0.018-0.106l0.001 0.002c-0.016-0.040-0.041-0.072-0.074-0.097l-0.001-0-0.143-0.091c-0.063-0.029-0.143-0.057-0.246-0.086l-0.314-0.12c-0.098-0.047-0.182-0.1-0.26-0.162l0.002 0.002c-0.146-0.105-0.24-0.274-0.24-0.466 0-0.007 0-0.014 0-0.021l-0 0.001c-0-0.004-0-0.009-0-0.013 0-0.095 0.023-0.185 0.065-0.264l-0.002 0.003c0.046-0.086 0.109-0.154 0.189-0.217 0.080-0.057 0.171-0.103 0.286-0.137 0.103-0.029 0.221-0.046 0.342-0.046 0.178 0 0.347 0.036 0.5 0.101l-0.008-0.003c0.131 0.063 0.234 0.149 0.309 0.263s0.114 0.24 0.114 0.389h-0.503c0-0.006 0-0.012 0-0.019 0-0.062-0.015-0.12-0.041-0.172l0.001 0.002c-0.032-0.055-0.079-0.098-0.135-0.125l-0.002-0.001c-0.063-0.033-0.138-0.052-0.216-0.052-0.004 0-0.008 0-0.013 0h0.001c-0.004-0-0.008-0-0.012-0-0.072 0-0.14 0.015-0.203 0.041l0.003-0.001c-0.055 0.023-0.1 0.060-0.131 0.108l-0.001 0.001c-0.029 0.041-0.046 0.092-0.046 0.146 0 0.001 0 0.002 0 0.002v-0c0 0.040 0.011 0.074 0.034 0.114 0.017 0.029 0.051 0.057 0.091 0.091 0.102 0.058 0.221 0.112 0.345 0.155l0.015 0.005c0.131 0.034 0.251 0.080 0.349 0.131 0.103 0.051 0.189 0.109 0.257 0.171 0.127 0.115 0.206 0.281 0.206 0.465 0 0.005-0 0.010-0 0.016v-0.001c0 0.103-0.023 0.2-0.057 0.286-0.046 0.080-0.103 0.154-0.183 0.211s-0.171 0.103-0.286 0.131c-0.102 0.027-0.219 0.043-0.34 0.043-0.257 0-0.496-0.071-0.701-0.195l0.006 0.003c-0.097-0.063-0.171-0.149-0.229-0.246-0.057-0.103-0.086-0.223-0.086-0.36h0.503c0 0.080 0.011 0.143 0.040 0.194 0.023 0.057 0.057 0.097 0.097 0.126 0.040 0.034 0.091 0.057 0.154 0.074 0.057 0.011 0.126 0.023 0.194 0.023 0.091 0 0.16-0.017 0.217-0.040 0.101-0.038 0.171-0.134 0.171-0.246 0-0.002-0-0.003-0-0.005v0z"></path>
</symbol>
<symbol id="icon-Logo-4" viewBox="0 0 59 32">
<path d="M15.314 25.354c0.137 0.16 0.211 0.354 0.206 0.554 0.006 0.131-0.017 0.263-0.074 0.383s-0.143 0.229-0.251 0.314c-0.274 0.189-0.611 0.28-0.949 0.257h-1.674v-3.503h1.64c0.32-0.023 0.64 0.057 0.903 0.229 0.109 0.080 0.189 0.183 0.246 0.297s0.080 0.234 0.074 0.36c0.006 0.194-0.057 0.383-0.189 0.537-0.131 0.137-0.303 0.234-0.503 0.274 0.229 0.034 0.423 0.143 0.571 0.297zM13.349 24.829h0.703c0.154 0.011 0.314-0.034 0.44-0.114 0.057-0.046 0.097-0.097 0.12-0.16 0.029-0.057 0.040-0.12 0.034-0.189 0-0.006 0.001-0.014 0.001-0.021 0-0.059-0.013-0.114-0.036-0.165l0.001 0.002c-0.027-0.061-0.066-0.113-0.114-0.154l-0.001-0c-0.114-0.076-0.254-0.122-0.404-0.122-0.019 0-0.037 0.001-0.055 0.002l0.002-0h-0.686v0.914zM14.56 26.171c0.057-0.046 0.103-0.097 0.131-0.16 0.022-0.048 0.035-0.105 0.035-0.165 0-0.010-0-0.021-0.001-0.031l0 0.001c0.001-0.010 0.002-0.022 0.002-0.035 0-0.060-0.013-0.117-0.037-0.168l0.001 0.002c-0.032-0.064-0.076-0.118-0.13-0.159l-0.001-0.001c-0.121-0.080-0.269-0.127-0.428-0.127-0.016 0-0.033 0-0.049 0.002l0.002-0h-0.737v0.954h0.743c0.171 0.011 0.331-0.034 0.469-0.12zM18.657 26.857l-0.914-1.366h-0.343v1.371h-0.783v-3.503h1.486c0.371-0.023 0.743 0.080 1.029 0.297 0.211 0.189 0.337 0.44 0.354 0.703 0.023 0.269-0.063 0.531-0.24 0.743-0.183 0.194-0.434 0.32-0.709 0.36l0.971 1.4h-0.857zM17.4 25.017h0.646c0.446 0 0.669-0.177 0.669-0.531 0-0.006 0-0.013 0-0.020 0-0.069-0.015-0.135-0.042-0.195l0.001 0.003c-0.030-0.072-0.072-0.133-0.125-0.183l-0-0c-0.122-0.091-0.275-0.145-0.441-0.145-0.022 0-0.043 0.001-0.064 0.003l0.003-0h-0.651l0.011 1.069zM22.937 26.16h-1.56l-0.274 0.697h-0.823l1.434-3.457h0.886l1.429 3.463h-0.817l-0.274-0.703zM22.731 25.629l-0.571-1.486-0.571 1.486h1.143zM28.297 26.857h-0.777l-1.743-2.377v2.377h-0.777v-3.503h0.777l1.743 2.4v-2.4h0.777v3.503zM32.737 26.023c-0.16 0.263-0.406 0.48-0.703 0.617-0.343 0.154-0.714 0.229-1.091 0.223h-1.389v-3.503h1.389c0.377-0.011 0.749 0.063 1.086 0.211 0.303 0.137 0.549 0.349 0.709 0.611 0.152 0.265 0.241 0.582 0.241 0.92s-0.090 0.655-0.246 0.929l0.005-0.009zM31.846 25.937c0.229-0.229 0.343-0.526 0.343-0.834s-0.114-0.6-0.343-0.834c-0.242-0.187-0.549-0.3-0.883-0.3-0.031 0-0.062 0.001-0.092 0.003l0.004-0h-0.543v2.269h0.543c0.354 0.017 0.703-0.091 0.971-0.303zM23.429 3.869s10.034 3.411 9.823 8.343v8.36s-10.029-3.417-9.823-8.354v-8.349zM42.194 18.611c1.823-1.136 3.992-1.893 6.319-2.11l0.058-0.004v-2.617c-2.631 0.904-4.811 2.553-6.351 4.693l-0.026 0.038z"></path>
<path d="M41.057 19.4c1.659-2.87 4.283-5.025 7.421-6.042l0.094-0.026v-7.531s-14.297 4.857-13.994 11.891v11.886s0.64-0.211 1.64-0.623c0-0.377 0-0.76 0.046-1.143 0.297-3.269 2.017-6.291 4.794-8.411z"></path>
<path d="M39.697 23.817c0.074-0.829 0.24-1.64 0.497-2.434-1.794 1.869-2.929 4.382-3.028 7.158l-0.001 0.019c1.2-0.514 2.105-0.95 2.992-1.417l-0.238 0.114c-0.174-0.735-0.273-1.58-0.273-2.447 0-0.35 0.016-0.695 0.048-1.037l-0.003 0.044zM40.263 23.857c-0.097 1.040-0.034 2.091 0.177 3.12 3.909-2.103 8.303-5.354 8.131-9.286v-0.343c-2.789 0.286-5.4 1.383-7.429 3.126-0.449 0.989-0.759 2.136-0.871 3.34l-0.003 0.043z"></path>
</symbol>
<symbol id="icon-Logo-5" viewBox="0 0 59 32">
<path d="M30.589 15.68c-0.216-0.281-0.347-0.637-0.347-1.024 0-0.040 0.001-0.079 0.004-0.118l-0 0.005v-1.651c0-0.503 0.114-0.886 0.343-1.154 0.229-0.263 0.623-0.389 1.183-0.389 0.526 0 0.897 0.114 1.114 0.331 0.24 0.286 0.36 0.64 0.331 0.989v0.389h-0.931v-0.394c0-0.126-0.006-0.257-0.029-0.383-0.015-0.093-0.063-0.172-0.131-0.228l-0.001-0.001c-0.084-0.055-0.186-0.088-0.296-0.088-0.017 0-0.033 0.001-0.049 0.002l0.002-0c-0.014-0.001-0.030-0.002-0.047-0.002-0.116 0-0.225 0.035-0.315 0.095l0.002-0.001c-0.077 0.062-0.132 0.149-0.154 0.249l-0.001 0.003c-0.029 0.137-0.040 0.274-0.034 0.406v2.006c-0.017 0.194 0.023 0.389 0.114 0.56 0.051 0.057 0.114 0.114 0.194 0.137 0.056 0.023 0.122 0.037 0.191 0.037 0.017 0 0.035-0.001 0.051-0.003l-0.002 0c0.011 0.001 0.024 0.001 0.037 0.001 0.11 0 0.213-0.035 0.296-0.094l-0.002 0.001c0.074-0.060 0.126-0.146 0.143-0.243l0-0.002c0.023-0.131 0.029-0.263 0.029-0.4v-0.406h0.937v0.371c0.029 0.366-0.086 0.731-0.326 1.034-0.211 0.246-0.583 0.371-1.12 0.371-0.543 0-0.954-0.131-1.183-0.4zM34.503 15.697c-0.24-0.257-0.36-0.629-0.36-1.126v-1.737c0-0.486 0.12-0.857 0.36-1.109 0.234-0.257 0.629-0.377 1.189-0.377 0.554 0 0.949 0.126 1.183 0.377 0.24 0.251 0.36 0.623 0.36 1.109v1.737c0 0.491-0.12 0.869-0.36 1.126-0.246 0.257-0.634 0.389-1.183 0.389s-0.949-0.131-1.189-0.389zM36.131 15.28c0.080-0.16 0.12-0.337 0.114-0.514v-2.12c0.006-0.171-0.029-0.349-0.114-0.509-0.051-0.061-0.116-0.109-0.191-0.136l-0.003-0.001c-0.054-0.021-0.116-0.033-0.181-0.033-0.023 0-0.046 0.002-0.068 0.004l0.003-0c-0.019-0.002-0.041-0.004-0.064-0.004-0.065 0-0.128 0.012-0.185 0.034l0.004-0.001c-0.078 0.029-0.144 0.076-0.194 0.136l-0.001 0.001c-0.086 0.16-0.126 0.331-0.114 0.509v2.131c-0.011 0.177 0.029 0.354 0.114 0.514 0.057 0.057 0.12 0.097 0.194 0.126 0.072 0.029 0.155 0.046 0.243 0.046s0.171-0.017 0.247-0.048l-0.004 0.002c0.074-0.029 0.143-0.069 0.2-0.126v-0.011zM38.366 11.4h1.011l0.76 3.2 0.777-3.2h0.983l0.103 4.623h-0.731l-0.074-3.217-0.754 3.217h-0.583l-0.777-3.229-0.074 3.229h-0.731l0.091-4.629zM43.131 11.4h1.577c0.909 0 1.36 0.434 1.36 1.314 0 0.834-0.474 1.257-1.429 1.257h-0.543v2.051h-0.971l0.006-4.629zM44.48 13.371c0.097 0.011 0.194 0 0.286-0.023s0.177-0.063 0.251-0.12c0.109-0.16 0.16-0.343 0.137-0.526 0-0.137-0.011-0.28-0.046-0.417-0.016-0.049-0.042-0.091-0.074-0.126l0 0c-0.033-0.037-0.073-0.068-0.118-0.090l-0.002-0.001c-0.137-0.057-0.286-0.086-0.434-0.074h-0.377v1.377h0.377zM47.474 11.4h1.046l1.069 4.623h-0.903l-0.211-1.069h-0.937l-0.217 1.069h-0.914l1.069-4.629zM48.366 14.417l-0.366-1.943-0.36 1.943h0.726zM50.457 11.4h0.68l1.303 2.634v-2.634h0.806v4.623h-0.646l-1.314-2.754v2.754h-0.829v-4.629zM55.143 14.257l-1.086-2.857h0.914l0.657 1.84 0.623-1.834h0.891l-1.069 2.857v1.76h-0.937v-1.766zM32.091 18.040v0.246h-0.8v1.874h-0.326v-1.874h-0.8v-0.246h1.926zM34.577 20.16h-0.257c-0.002 0-0.005 0-0.008 0-0.022 0-0.043-0.006-0.061-0.018l0 0c-0.020-0.012-0.036-0.030-0.045-0.051l-0-0.001-0.229-0.503h-1.103l-0.229 0.503c-0.007 0.022-0.019 0.042-0.034 0.057v0c-0.019 0.014-0.043 0.023-0.069 0.023-0.002 0-0.004-0-0.006-0h-0.257l0.971-2.12h0.343l0.983 2.114zM32.966 19.377h0.92l-0.389-0.863c-0.026-0.054-0.051-0.121-0.071-0.189l-0.003-0.011-0.034 0.114-0.034 0.086-0.389 0.857zM36.257 19.954h0.183c0.107-0.008 0.206-0.031 0.299-0.065l-0.008 0.002 0.131-0.057v-0.474h-0.417c-0.009-0.004-0.017-0.010-0.023-0.017l-0-0c-0.007-0.004-0.013-0.010-0.017-0.017l-0-0v-0.183h0.754v0.811c-0.187 0.118-0.411 0.197-0.652 0.217l-0.005 0c-0.091 0.011-0.189 0.017-0.286 0.017-0.166 0-0.331-0.029-0.486-0.080-0.15-0.053-0.279-0.128-0.39-0.224l0.002 0.001c-0.104-0.093-0.189-0.205-0.249-0.331l-0.003-0.006c-0.057-0.137-0.091-0.286-0.091-0.44-0-0.011-0.001-0.023-0.001-0.036 0-0.296 0.133-0.562 0.342-0.74l0.001-0.001c0.109-0.097 0.24-0.171 0.383-0.223 0.153-0.052 0.328-0.082 0.511-0.082 0.1 0 0.198 0.009 0.293 0.026l-0.010-0.002c0.16 0.023 0.304 0.071 0.436 0.141l-0.007-0.003c0.057 0.034 0.114 0.069 0.171 0.114l-0.097 0.126c-0.008 0.012-0.020 0.022-0.034 0.028l-0.001 0c-0.012 0.006-0.025 0.010-0.040 0.011h-0c-0.023-0-0.045-0.006-0.063-0.017l0.001 0c-0.041-0.017-0.072-0.032-0.104-0.049l0.006 0.003c-0.155-0.076-0.337-0.12-0.529-0.12-0.009 0-0.018 0-0.027 0l0.001-0c-0.126-0.006-0.257 0.011-0.377 0.057-0.215 0.069-0.384 0.227-0.467 0.429l-0.002 0.005c-0.086 0.229-0.086 0.469 0 0.703 0.046 0.097 0.114 0.189 0.2 0.263 0.147 0.135 0.344 0.218 0.561 0.218 0.038 0 0.075-0.003 0.112-0.008l-0.004 0zM39.354 19.92h1.063v0.24h-1.383v-2.114h0.331l-0.011 1.874zM41.526 20.16h-0.337v-2.114h0.337v2.114zM42.76 18.057c0.023 0 0.040 0.017 0.057 0.034l1.417 1.6v-1.657h0.286v2.126h-0.166c-0.023 0-0.046 0-0.069-0.011-0.022-0.010-0.041-0.024-0.057-0.040l-0-0-1.417-1.6v1.651h-0.28v-2.114h0.171l0.057 0.006zM46.971 18.040v0.234h-1.177v0.703h0.954v0.229h-0.954v0.72h1.177v0.229h-1.52v-2.114h1.52zM12.114 4.949l14.771 3.617v12.686l-14.771-3.617v-12.686zM11.166 3.863v14.389l16.663 4.080v-14.377l-16.663-4.086z"></path>
<path d="M20.097 29.011l-16.669-4.097v-14.371l16.669 4.086v14.383z"></path>
<path d="M11.44 4.783l14.583 3.577-6.206 5.349-14.577-3.571 6.2-5.354zM11.166 3.869l-7.737 6.674 16.669 4.086 7.731-6.674-16.663-4.086zM21.029 28.2l6.8-5.857-6.8-1.669v7.531z"></path>
</symbol>
<symbol id="icon-Logo-0" viewBox="0 0 59 32">
<path d="M21.714 4l4 3.817-7.429-0.006v18.514h19.429v-7.086l4 3.811v-19.051h-20zM37.543 18.8l-11.366-10.829h11.366v10.829zM34.011 23.611h-12.651v-12.446h0.897v11.6h11.754v0.846zM23.886 29.749l-0.474-0.971h-0.389l0.686 1.286v0.743h0.349v-0.743l0.686-1.286h-0.389l-0.469 0.971zM25.623 28.777h0.080l0.771 2.034h-0.371l-0.16-0.474h-0.789l-0.166 0.474h-0.366l0.766-2.034h0.234zM25.251 30.057h0.594l-0.297-0.857-0.297 0.857zM27.709 29.72c-0.065-0.074-0.121-0.159-0.163-0.251l-0.003-0.006c-0.028-0.063-0.044-0.136-0.044-0.214 0-0.096 0.025-0.185 0.068-0.263l-0.001 0.003c0.044-0.074 0.106-0.132 0.18-0.17l0.003-0.001c0.080-0.046 0.171-0.063 0.28-0.063 0.103 0 0.189 0.017 0.263 0.057 0.142 0.075 0.237 0.221 0.237 0.39 0 0.064-0.013 0.124-0.038 0.178l0.001-0.003c-0.026 0.055-0.058 0.102-0.097 0.143l0-0c-0.040 0.046-0.086 0.086-0.143 0.126l-0.137 0.103 0.4 0.474c0.058-0.108 0.091-0.236 0.091-0.371 0-0.002 0-0.004-0-0.006v0h0.286c0 0.097-0.006 0.189-0.029 0.28-0.028 0.126-0.079 0.238-0.15 0.334l0.002-0.002 0.297 0.354h-0.389l-0.114-0.137c-0.069 0.046-0.137 0.086-0.211 0.114-0.090 0.032-0.194 0.051-0.302 0.051-0.13 0-0.255-0.027-0.367-0.076l0.006 0.002c-0.095-0.047-0.173-0.117-0.227-0.203l-0.001-0.002c-0.049-0.081-0.078-0.179-0.078-0.284 0-0.083 0.018-0.162 0.051-0.233l-0.001 0.003c0.034-0.057 0.080-0.12 0.137-0.171 0.057-0.057 0.114-0.103 0.189-0.154zM27.869 29.926l-0.040 0.029c-0.044 0.032-0.082 0.070-0.113 0.113l-0.001 0.001c-0.034 0.053-0.055 0.117-0.055 0.186 0 0.057 0.014 0.111 0.039 0.159l-0.001-0.002c0.029 0.051 0.063 0.091 0.114 0.114 0.051 0.034 0.114 0.046 0.183 0.046 0.001 0 0.002 0 0.002 0 0.123 0 0.236-0.043 0.324-0.115l-0.001 0.001-0.451-0.531zM27.949 29.554l0.126-0.086c0.049-0.031 0.091-0.069 0.125-0.113l0.001-0.001c0.025-0.038 0.040-0.086 0.040-0.136 0-0.002-0-0.005-0-0.007v0c-0.003-0.108-0.091-0.195-0.2-0.195-0.004 0-0.008 0-0.012 0l0.001-0c-0.002-0-0.005-0-0.007-0-0.083 0-0.154 0.049-0.187 0.119l-0.001 0.001c-0.017 0.035-0.026 0.076-0.026 0.12 0 0.048 0.012 0.093 0.033 0.133l-0.001-0.002 0.086 0.137 0.023 0.029zM31.503 30.149h-0.343c-0.009 0.085-0.033 0.162-0.070 0.232l0.002-0.003c-0.032 0.060-0.081 0.107-0.141 0.136l-0.002 0.001c-0.063 0.029-0.138 0.046-0.216 0.046-0.009 0-0.017-0-0.026-0.001l0.001 0c-0.002 0-0.005 0-0.008 0-0.075 0-0.145-0.019-0.206-0.053l0.002 0.001c-0.059-0.034-0.107-0.080-0.142-0.135l-0.001-0.002c-0.038-0.061-0.068-0.131-0.085-0.207l-0.001-0.005c-0.017-0.086-0.023-0.177-0.023-0.28v-0.166c0-0.109 0.006-0.206 0.029-0.286 0.017-0.086 0.051-0.16 0.091-0.217s0.086-0.097 0.149-0.131c0.055-0.026 0.12-0.040 0.188-0.040 0.006 0 0.013 0 0.019 0l-0.001-0c0.097 0 0.177 0.017 0.24 0.046 0.057 0.034 0.103 0.080 0.137 0.143 0.029 0.063 0.051 0.137 0.057 0.229h0.354c-0.017-0.137-0.057-0.257-0.114-0.366-0.063-0.103-0.149-0.183-0.263-0.246-0.11-0.055-0.239-0.086-0.375-0.086-0.013 0-0.025 0-0.038 0.001l0.002-0c-0.126 0-0.24 0.017-0.343 0.063s-0.189 0.114-0.263 0.194c-0.069 0.086-0.126 0.189-0.166 0.303s-0.057 0.251-0.057 0.4v0.171c0 0.143 0.017 0.274 0.057 0.389 0.040 0.12 0.091 0.223 0.166 0.303 0.137 0.162 0.34 0.263 0.567 0.263 0.009 0 0.019-0 0.028-0.001l-0.001 0c0.166 0 0.303-0.029 0.417-0.091 0.114-0.057 0.206-0.143 0.269-0.246 0.057-0.103 0.097-0.223 0.114-0.354zM33.446 29.851v-0.114c0-0.149-0.023-0.286-0.063-0.411-0.040-0.114-0.097-0.229-0.171-0.309-0.072-0.083-0.162-0.149-0.264-0.192l-0.005-0.002c-0.098-0.043-0.212-0.069-0.333-0.069-0.004 0-0.007 0-0.011 0h0.001c-0.126 0-0.24 0.023-0.343 0.069-0.103 0.040-0.189 0.109-0.263 0.194s-0.137 0.189-0.171 0.309c-0.046 0.126-0.063 0.263-0.063 0.411v0.114c0 0.154 0.017 0.286 0.057 0.411 0.046 0.126 0.103 0.229 0.177 0.314 0.141 0.162 0.348 0.263 0.578 0.263 0.010 0 0.020-0 0.029-0.001l-0.001 0c0.126 0 0.24-0.023 0.343-0.069 0.109-0.046 0.194-0.114 0.269-0.194 0.074-0.086 0.131-0.189 0.171-0.314 0.040-0.12 0.057-0.257 0.057-0.411zM33.091 29.737v0.114c0 0.114-0.011 0.211-0.034 0.303-0.017 0.086-0.051 0.16-0.091 0.217s-0.091 0.104-0.152 0.136l-0.002 0.001c-0.059 0.029-0.128 0.046-0.201 0.046-0.004 0-0.007-0-0.011-0h0.001c-0.002 0-0.004 0-0.006 0-0.073 0-0.141-0.017-0.202-0.047l0.003 0.001c-0.063-0.034-0.114-0.080-0.153-0.136l-0.001-0.001c-0.040-0.057-0.074-0.131-0.097-0.217-0.022-0.086-0.034-0.186-0.034-0.288 0-0.005 0-0.011 0-0.016v0.001-0.114c0-0.114 0.011-0.211 0.034-0.303 0.023-0.086 0.057-0.16 0.097-0.217s0.091-0.103 0.154-0.131c0.057-0.034 0.126-0.046 0.206-0.046 0.002-0 0.004-0 0.006-0 0.073 0 0.141 0.017 0.202 0.047l-0.003-0.001c0.063 0.029 0.114 0.074 0.154 0.131 0.046 0.057 0.080 0.131 0.097 0.217 0.023 0.091 0.034 0.189 0.034 0.303z"></path>
</symbol>
<symbol id="icon-instagram" viewBox="0 0 32 32">
<path fill="#f4f4fd" style="fill: var(--color3, #f4f4fd)" d="M31.96 9.4c-0.027-1.401-0.296-2.73-0.767-3.96l0.027 0.080c-0.421-1.112-1.047-2.059-1.839-2.839l-0.001-0.001c-0.8-0.8-1.78-1.44-2.84-1.84-1-0.4-2.18-0.66-3.88-0.74-1.479-0.072-3.211-0.112-4.954-0.112-0.579 0-1.157 0.005-1.734 0.013l0.087-0.001c-4.34 0-4.88 0-6.6 0.1-1.7 0.060-2.86 0.34-3.86 0.74-1.112 0.421-2.059 1.047-2.839 1.839l-0.001 0.001c-0.8 0.8-1.44 1.78-1.84 2.84-0.4 1-0.66 2.2-0.74 3.88-0.082 1.578-0.128 3.426-0.128 5.284 0 0.463 0.003 0.925 0.009 1.386l-0.001-0.070c0 4.34 0 4.9 0.080 6.6s0.36 2.86 0.76 3.88c0.4 1.080 1.040 2.040 1.84 2.84s1.78 1.44 2.84 1.84c1 0.4 2.18 0.68 3.88 0.74 1.7 0.080 2.24 0.1 6.6 0.1 4.34 0 4.88 0 6.6-0.1 1.401-0.027 2.73-0.296 3.96-0.767l-0.080 0.027c2.155-0.852 3.828-2.525 4.661-4.625l0.019-0.055c0.4-1.020 0.66-2.2 0.74-3.88 0.080-1.7 0.080-2.26 0.080-6.6s0-4.88-0.080-6.6zM29.080 22.48c-0.060 1.56-0.32 2.4-0.54 2.96-0.54 1.4-1.64 2.5-3.040 3.040-0.56 0.22-1.4 0.48-2.98 0.56-1.68 0.060-2.2 0.080-6.46 0.080s-4.78 0-6.46-0.080c-1.067-0.016-2.082-0.22-3.020-0.58l0.060 0.020c-0.722-0.27-1.337-0.679-1.839-1.199l-0.001-0.001c-0.519-0.504-0.928-1.119-1.189-1.806l-0.011-0.034c-0.333-0.879-0.53-1.895-0.54-2.956l-0-0.004c-0.070-1.484-0.11-3.223-0.11-4.972 0-0.523 0.004-1.046 0.011-1.567l-0.001 0.079c0-4.28 0-4.8 0.1-6.46 0.060-1.58 0.32-2.4 0.54-2.98 0.26-0.7 0.66-1.32 1.2-1.84 0.52-0.52 1.14-0.94 1.84-1.2 0.56-0.2 1.4-0.48 2.96-0.54 1.7-0.080 2.2-0.1 6.48-0.1 4.26 0 4.78 0.020 6.46 0.1 1.56 0.060 2.4 0.34 2.96 0.56 0.7 0.24 1.34 0.66 1.84 1.2 0.54 0.5 0.94 1.12 1.2 1.82 0.2 0.56 0.48 1.4 0.54 2.98 0.080 1.68 0.1 2.2 0.1 6.46s0 4.76-0.1 6.46z"></path>
<path fill="#f4f4fd" style="fill: var(--color3, #f4f4fd)" d="M16.060 7.8c-0.121-0.006-0.263-0.010-0.405-0.010-4.54 0-8.22 3.68-8.22 8.22s3.68 8.22 8.22 8.22c0.143 0 0.284-0.004 0.425-0.011l-0.020 0.001c4.54 0 8.22-3.68 8.22-8.22s-3.68-8.22-8.22-8.22v0zM16.060 21.34c-2.949 0-5.34-2.391-5.34-5.34s2.391-5.34 5.34-5.34v0c2.949 0 5.34 2.391 5.34 5.34s-2.391 5.34-5.34 5.34v0zM26.52 7.46c0 1.060-0.86 1.92-1.92 1.92s-1.92-0.86-1.92-1.92v0c0-1.060 0.86-1.92 1.92-1.92s1.92 0.86 1.92 1.92v0z"></path>
</symbol>
<symbol id="icon-twitter" viewBox="0 0 32 32">
<path fill="#f4f4fd" style="fill: var(--color3, #f4f4fd)" d="M32 6.080c-1.2 0.52-2.46 0.86-3.78 1.040 1.36-0.8 2.4-2.1 2.88-3.64-1.26 0.76-2.66 1.3-4.16 1.6-1.202-1.272-2.901-2.063-4.785-2.063-3.634 0-6.58 2.946-6.58 6.58 0 0.519 0.060 1.023 0.174 1.508l-0.009-0.045c-5.46-0.281-10.261-2.881-13.473-6.826l-0.027-0.034c-0.554 0.945-0.881 2.081-0.881 3.294 0 2.264 1.14 4.263 2.878 5.451l0.023 0.015c-1.090-0.028-2.106-0.321-2.993-0.817l0.033 0.017v0.060c0.001 3.17 2.237 5.817 5.217 6.452l0.043 0.008c-0.508 0.142-1.092 0.224-1.695 0.224-0.448 0-0.885-0.045-1.307-0.131l0.042 0.007c0.875 2.617 3.27 4.484 6.111 4.56l0.009 0c-2.22 1.754-5.060 2.814-8.147 2.814-0.554 0-1.101-0.034-1.637-0.101l0.064 0.006c2.824 1.844 6.282 2.94 9.995 2.94 0.023 0 0.046-0 0.068-0h-0.004c12.080 0 18.68-10 18.68-18.66l-0.020-0.86c1.296-0.936 2.385-2.063 3.25-3.353l0.030-0.047z"></path>
</symbol>
<symbol id="icon-facebook" viewBox="0 0 32 32">
<path fill="#f4f4fd" style="fill: var(--color3, #f4f4fd)" d="M21.32 5.32h2.94v-5.12c-0.52-0.040-2.26-0.2-4.26-0.2-4.2 0-7.1 2.64-7.1 7.52v4.48h-4.66v5.68h4.66v14.32h5.7v-14.32h4.46l0.7-5.68h-5.16v-3.92c0-1.64 0.44-2.76 2.72-2.76z"></path>
</symbol>
<symbol id="icon-linkedin" viewBox="0 0 32 32">
<path fill="#f4f4fd" style="fill: var(--color3, #f4f4fd)" d="M32 32v-11.74c0-5.74-1.24-10.16-7.94-10.16-3.24 0-5.4 1.76-6.28 3.44h-0.1v-2.9h-6.36v21.36h6.62v-10.6c0-2.8 0.54-5.48 4-5.48 3.4 0 3.44 3.18 3.44 5.66v10.42h6.6zM0.52 10.64h6.64v21.36h-6.64v-21.36zM3.84 0c-2.12 0-3.84 1.72-3.84 3.84s1.72 3.88 3.84 3.88 3.84-1.76 3.84-3.88-1.72-3.84-3.84-3.84z"></path>
</symbol>
<symbol id="icon-antenna" viewBox="0 0 32 32">
<path fill="#2e2f42" style="fill: var(--color4, #2e2f42)" d="M30.773 22.098l-8.443-8.505 0.937-4.615c0.242 0.094 0.499 0.143 0.759 0.145h0.006c0.008 0 0.017 0 0.026 0 1.192 0 2.159-0.967 2.159-2.159s-0.967-2.159-2.159-2.159c-1.192 0-2.159 0.967-2.159 2.159 0 0.26 0.046 0.508 0.13 0.739l-0.005-0.015-4.96 0.605-8.091-8.133c-0.096-0.098-0.229-0.159-0.376-0.16h-0c-0.14 0.001-0.274 0.057-0.373 0.155l-1.513 1.504c-0.097 0.097-0.156 0.23-0.156 0.377s0.060 0.281 0.156 0.377v0l0.814 0.825c-1.143 2.062-1.816 4.522-1.816 7.139 0 4.106 1.656 7.825 4.336 10.526l-0.001-0.001c0.042 0.041 0.091 0.073 0.146 0.098-0.032 0.164-0.051 0.353-0.052 0.546v6.188h-6.4c-1.472 0.001-2.666 1.194-2.667 2.666v1.067c0 0.295 0.239 0.533 0.534 0.533h24.534c0.294 0 0.534-0.239 0.534-0.534v-1.067c-0.002-1.472-1.195-2.665-2.667-2.666h-6.4v-2.742c1.003 0.21 2.024 0.317 3.049 0.32 2.58-0.003 5.005-0.663 7.117-1.822l-0.077 0.039 0.819 0.823c0.099 0.101 0.235 0.159 0.377 0.16 0.14-0.001 0.274-0.056 0.373-0.155l1.512-1.505c0.096-0.097 0.156-0.23 0.156-0.377s-0.060-0.28-0.156-0.377v0zM23.28 6.233c0.193-0.192 0.458-0.31 0.752-0.31 0.589 0 1.067 0.478 1.067 1.066s-0.477 1.066-1.067 1.066c-0 0-0 0-0 0h-0.003c-0.587-0.003-1.061-0.479-1.061-1.066 0-0.296 0.12-0.563 0.315-0.756l0-0h-0.002zM22.024 9.738l-0.599 2.945-1.175-1.182 1.774-1.764zM21.419 8.836l-1.92 1.909-1.485-1.493 3.405-0.415zM24.004 28.8c0.884 0 1.6 0.716 1.6 1.6v0 0.534h-23.466v-0.534c0-0.884 0.716-1.6 1.6-1.6h20.267zM16.538 26.666v1.067h-5.334v-1.067h5.334zM11.204 25.6v-4.053c0-1.294 1.197-2.346 2.666-2.346s2.667 1.053 2.667 2.346v4.053h-5.334zM17.604 23.904v-2.357c0-1.882-1.675-3.413-3.733-3.413-0.018-0-0.038-0-0.059-0-1.353 0-2.54 0.707-3.213 1.771l-0.009 0.016c-2.36-2.482-3.811-5.846-3.811-9.549 0-2.314 0.567-4.496 1.569-6.414l-0.036 0.077 18.602 18.709c-1.823 0.947-3.98 1.502-6.266 1.502-1.079 0-2.128-0.124-3.136-0.357l0.093 0.018zM28.893 23.221l-21.057-21.18 0.755-0.752 7.935 7.98c0.003 0 0.006 0.007 0.009 0.009l13.114 13.191-0.757 0.752z"></path>
<path fill="#4d5ae5" style="fill: var(--color5, #4d5ae5)" d="M13.876 20.267h-0.005c-0.001 0-0.002 0-0.002 0-0.884 0-1.6 0.716-1.6 1.6s0.715 1.599 1.597 1.6h0.005c0.001 0 0.002 0 0.002 0 0.884 0 1.6-0.716 1.6-1.6s-0.715-1.599-1.597-1.6h-0zM14.249 22.245c-0.096 0.096-0.229 0.155-0.376 0.155-0.295 0-0.534-0.239-0.534-0.534 0-0.001 0-0.001 0-0.002v0c0.002-0.292 0.238-0.529 0.53-0.53h0c0.293 0.002 0.531 0.24 0.531 0.534 0 0.148-0.060 0.281-0.157 0.378l-0 0h0.005z"></path>
</symbol>
<symbol id="icon-astronaut" viewBox="0 0 32 32">
<path fill="#4d5ae5" style="fill: var(--color5, #4d5ae5)" d="M31.974 4.524c-0.064-0.191-0.227-0.332-0.427-0.362l-0.003-0-1.911-0.278-0.855-1.731c-0.179-0.365-0.776-0.365-0.956 0l-0.855 1.731-1.91 0.278c-0.26 0.039-0.457 0.26-0.457 0.528 0 0.149 0.061 0.285 0.161 0.381l1.383 1.348-0.326 1.903c-0.034 0.2 0.048 0.402 0.212 0.521 0.166 0.12 0.383 0.136 0.562 0.040l1.709-0.899 1.709 0.899c0.072 0.038 0.157 0.061 0.247 0.061 0.295 0 0.534-0.239 0.534-0.534 0-0.031-0.003-0.062-0.008-0.092l0 0.003-0.326-1.903 1.383-1.348c0.099-0.097 0.161-0.233 0.161-0.382 0-0.059-0.009-0.115-0.027-0.168l0.001 0.004zM29.511 5.851c-0.125 0.122-0.183 0.299-0.153 0.472l0.191 1.114-1-0.526c-0.072-0.039-0.158-0.062-0.248-0.062s-0.177 0.023-0.251 0.063l0.003-0.001-1 0.526 0.191-1.114c0.005-0.027 0.008-0.058 0.008-0.090 0-0.15-0.061-0.285-0.161-0.382l-0.81-0.79 1.119-0.162c0.174-0.025 0.323-0.135 0.401-0.292l0.5-1.013 0.501 1.013c0.078 0.157 0.228 0.267 0.402 0.292l1.119 0.162-0.809 0.79zM26.134 20.522h-1.067v1.067h1.067v-1.067zM26.134 22.655h-1.067v1.067h1.067v-1.067z"></path>
<path fill="#4d5ae5" style="fill: var(--color5, #4d5ae5)" d="M27.2 21.589h-1.067v1.067h1.067v-1.067zM25.067 21.589h-1.067v1.067h1.067v-1.067zM22.4 26.389h-1.067v1.067h1.067v-1.067zM22.4 28.523h-1.067v1.067h1.067v-1.067zM23.467 27.456h-1.067v1.067h1.067v-1.067z"></path>
<path fill="#4d5ae5" style="fill: var(--color5, #4d5ae5)" d="M21.334 27.456h-1.067v1.067h1.067v-1.067zM16 24.256h-1.066v1.067h1.066v-1.067zM16 26.389h-1.066v1.067h1.066v-1.067zM17.067 25.323h-1.067v1.067h1.067v-1.067zM14.934 25.323h-1.067v1.067h1.067v-1.067zM5.867 6.122h-1.066v1.066h1.066v-1.066zM5.867 8.255h-1.066v1.067h1.066v-1.066zM6.933 7.189h-1.066v1.067h1.066v-1.067zM4.8 7.189h-1.067v1.067h1.067v-1.067z"></path>
<path fill="#2e2f42" style="fill: var(--color4, #2e2f42)" d="M24.715 14.159c-0.28-0.377-0.699-0.636-1.179-0.704l-0.009-0.001c-0.076-0.012-0.164-0.018-0.254-0.018-0.411 0-0.789 0.139-1.090 0.374l0.004-0.003-1.252 0.96-1.898 1.417-1.358-0.541c2.421-1.086 4.114-3.508 4.114-6.32 0-3.823-3.122-6.933-6.961-6.933s-6.962 3.11-6.962 6.933c0 1.386 0.414 2.674 1.12 3.758l-2.769-0.024c-0.008 0-0.015 0.005-0.024 0.005-0.053 0.002-0.104 0.012-0.155 0.030-0.013 0.005-0.026 0.008-0.038 0.014-0.006 0.002-0.013 0.003-0.019 0.007l-3.234 1.597-1.893 0.911c-0.024 0.011-0.045 0.023-0.064 0.036l0.001-0.001c-0.482 0.324-0.794 0.866-0.794 1.482 0 0.297 0.073 0.576 0.201 0.822l-0.005-0.010c0.22 0.429 0.595 0.745 1.056 0.89 0.161 0.053 0.345 0.083 0.537 0.083 0.308 0 0.598-0.078 0.851-0.216l-0.009 0.005 1.388-0.738 2.264-1.169 1.357-0.008-5.442 5.415c0 0.001-0.001 0.001-0.002 0.002l-1.339 1.333c-0.303 0.299-0.49 0.714-0.49 1.173 0 0.002 0 0.003 0 0.005v-0c0 0.445 0.173 0.863 0.49 1.178 0.325 0.323 0.752 0.485 1.179 0.485s0.855-0.162 1.18-0.485l1.314-1.308 1.74-1.3 0.901 0.897-3.102 3.088c-0.303 0.299-0.49 0.714-0.49 1.173 0 0.002 0 0.003 0 0.005v-0c0 0.445 0.174 0.863 0.49 1.179 0.325 0.323 0.752 0.485 1.18 0.485s0.855-0.162 1.18-0.485l3.482-3.466c0-0.001 0-0.002 0.001-0.002l1.010-1-0.004-0.003c0.007-0.006 0.015-0.009 0.022-0.015l5.166-5.658 3.471 0.494c0.020 0.003 0.044 0.004 0.068 0.004 0.070 0 0.137-0.014 0.198-0.039l-0.004 0.001c0.017-0.006 0.033-0.015 0.050-0.023 0.019-0.009 0.039-0.015 0.057-0.027l3.213-2.134c0.012-0.008 0.018-0.020 0.029-0.029 0.012-0.010 0.029-0.014 0.040-0.025l1.272-1.192c0.347-0.326 0.564-0.787 0.564-1.299 0-0.4-0.132-0.77-0.355-1.067l0.003 0.005zM2.13 17.77c-0.173 0.093-0.37 0.111-0.558 0.052-0.295-0.093-0.505-0.364-0.505-0.683 0-0.236 0.114-0.445 0.29-0.575l0.002-0.001 1.314-0.632 0.316 0.925 0.133 0.388-0.993 0.527zM5.628 15.943l-1.548 0.8-0.255-0.747-0.183-0.537 2.026-1-0.040 1.483zM20.727 9.322c0 0.918-0.219 1.785-0.599 2.559l-4.181-1.899c-0.043-0.575-0.342-1.073-0.782-1.384l-0.006-0.004 1.464-4.86c2.378 0.755 4.105 2.974 4.105 5.587zM8.938 9.322c0-3.235 2.644-5.867 5.894-5.867 0.253 0 0.5 0.022 0.745 0.053l-1.432 4.753c-0.019 0-0.037-0.005-0.057-0.005-0 0-0 0-0.001 0-1.032 0-1.869 0.835-1.872 1.866v0c0.003 1.031 0.84 1.867 1.872 1.867 0 0 0 0 0.001 0h-0c0.694 0 1.294-0.383 1.618-0.944l3.863 1.755c-1.075 1.447-2.795 2.39-4.736 2.39-3.25 0-5.895-2.633-5.895-5.867zM14.895 10.122c0 0.441-0.362 0.8-0.806 0.8-0.001 0-0.001 0-0.002 0-0.443 0-0.802-0.358-0.804-0.8v-0c0-0.441 0.361-0.8 0.806-0.8s0.806 0.359 0.806 0.8zM2.465 25.146c-0.11 0.108-0.261 0.175-0.428 0.175s-0.317-0.067-0.427-0.175l0 0c-0.109-0.108-0.176-0.257-0.176-0.422s0.067-0.315 0.176-0.422l0-0 0.962-0.959 0.851 0.848-0.958 0.955zM5.678 28.88c-0.11 0.109-0.261 0.176-0.428 0.176s-0.317-0.067-0.427-0.175l0 0c-0.109-0.108-0.176-0.257-0.176-0.422s0.067-0.315 0.176-0.422l0-0 0.963-0.959 0.851 0.848-0.96 0.955zM9.161 25.411l-0.002 0.001-1.765 1.76-0.851-0.848 1.763-1.756s0.001 0 0.002-0.001c0.040-0.040 0.065-0.088 0.090-0.135 0.007-0.014 0.020-0.026 0.026-0.040 0.017-0.041 0.019-0.085 0.025-0.129 0.004-0.024 0.014-0.047 0.014-0.073 0-0.035-0.012-0.070-0.020-0.105-0.007-0.032-0.007-0.065-0.018-0.096-0.020-0.050-0.055-0.095-0.091-0.137-0.010-0.012-0.014-0.027-0.025-0.038h-0.001l-0.001-0.002-1.607-1.6c-0.017-0.017-0.039-0.024-0.058-0.038-0.025-0.021-0.054-0.040-0.084-0.056l-0.003-0.001c-0.027-0.013-0.058-0.024-0.090-0.032l-0.003-0.001c-0.030-0.009-0.065-0.017-0.101-0.020l-0.002-0c-0.006-0-0.013-0-0.020-0-0.026 0-0.052 0.002-0.077 0.006l0.003-0c-0.039 0.004-0.074 0.011-0.108 0.021l0.004-0.001c-0.036 0.013-0.067 0.028-0.096 0.046l0.002-0.001c-0.020 0.011-0.043 0.015-0.061 0.029l-1.774 1.324-0.901-0.897 2.399-2.386 4.36 4.289-0.927 0.919zM15.979 18.394c-0.015-0.002-0.030 0.004-0.045 0.003-0.008-0-0.017-0.001-0.026-0.001-0.031 0-0.062 0.003-0.092 0.008l0.003-0c-0.070 0.011-0.132 0.035-0.187 0.069l0.002-0.001c-0.030 0.018-0.057 0.038-0.083 0.061-0.013 0.011-0.028 0.017-0.040 0.029l-4.698 5.146-4.328-4.257 2.833-2.818c0.096-0.097 0.156-0.23 0.156-0.377 0-0.295-0.239-0.534-0.534-0.534-0 0-0.001 0-0.001 0h0l-2.219 0.013 0.027-1.607 3.104 0.027c1.264 1.297 3.027 2.101 4.978 2.101 0.001 0 0.002 0 0.003 0h-0c0.438 0 0.864-0.045 1.279-0.122 0.040 0.032 0.079 0.064 0.13 0.085l2.409 0.96 0.152 0.758 0.178 0.885-3.003-0.427zM20.020 18.573l-0.314-1.558 1.447-1.080 0.947 1.257-2.080 1.381zM23.774 15.742l-0.838 0.785-0.931-1.236 0.831-0.637c0.155-0.12 0.351-0.168 0.543-0.143 0.194 0.027 0.364 0.128 0.48 0.284 0.217 0.292 0.18 0.699-0.085 0.947z"></path>
<path fill="#2e2f42" style="fill: var(--color4, #2e2f42)" d="M13.602 18.544l-2.143-2.134c-0.096-0.096-0.229-0.155-0.376-0.155s-0.28 0.059-0.376 0.155l-2.143 2.134c-0.097 0.097-0.156 0.231-0.156 0.378s0.060 0.281 0.156 0.378l-0-0 2.143 2.133c0.096 0.096 0.229 0.155 0.376 0.155s0.28-0.059 0.376-0.155l2.143-2.133c0.097-0.097 0.157-0.23 0.157-0.378s-0.060-0.282-0.157-0.378l-0-0zM11.083 20.303l-1.386-1.381 1.386-1.381 1.387 1.381-1.387 1.381zM17.164 5.071l-0.258 1.035c0.071 0.018 1.738 0.452 1.738 2.149h1.067c0-2.017-1.666-2.966-2.546-3.185zM19.711 9.322h-1.067v1.067h1.067v-1.067z"></path>
</symbol>
<symbol id="icon-clock" viewBox="0 0 31 32">
<path d="M30.797 15.301c-0.002-8.452-6.855-15.303-15.308-15.301s-15.303 6.855-15.301 15.308c0.002 6.788 4.422 12.543 10.541 14.545l0.108 0.031c0.060 0.019 0.123 0.029 0.187 0.029 0.121 0 0.239-0.032 0.342-0.093 0.135-0.080 0.236-0.207 0.284-0.357l3.865-12.25c1.054-0.004 1.906-0.859 1.906-1.913 0-1.057-0.856-1.913-1.913-1.913-0.303 0-0.59 0.070-0.844 0.196l0.011-0.005-5.106-5.107c-0.115-0.115-0.275-0.187-0.451-0.187-0.352 0-0.638 0.285-0.638 0.638 0 0.176 0.071 0.336 0.187 0.451v0l5.104 5.109c-0.121 0.241-0.191 0.525-0.191 0.826 0 0.601 0.283 1.137 0.723 1.48l0.004 0.003-3.683 11.673c-7.278-2.681-11.005-10.754-8.323-18.032 2.681-7.277 10.755-11.005 18.032-8.323s11.004 10.755 8.323 18.032c-1.345 3.581-4.004 6.406-7.374 7.938l-0.088 0.036-0.398-1.875c-0.063-0.291-0.318-0.505-0.624-0.505-0.163 0-0.312 0.061-0.425 0.162l0.001-0.001-3.837 3.425c-0.132 0.117-0.214 0.287-0.214 0.477 0 0.283 0.185 0.524 0.441 0.607l0.005 0.001 4.898 1.564c0.058 0.020 0.126 0.031 0.196 0.031 0.352 0 0.637-0.285 0.637-0.637 0-0.047-0.005-0.093-0.015-0.137l0.001 0.004-0.391-1.839c5.528-2.374 9.329-7.772 9.329-14.057 0-0.011 0-0.023-0-0.034v0.002zM15.492 14.664c0.352 0 0.638 0.286 0.638 0.638s-0.286 0.638-0.638 0.638v0c-0.352 0-0.638-0.286-0.638-0.638s0.286-0.638 0.638-0.638v0zM17.593 29.527l2.184-1.948 0.603 2.84-2.787-0.892z"></path>
</symbol>
<symbol id="icon-ps" viewBox="0 0 41 32">
<path d="M2.047 31.732h32.751c0 0 0 0 0.001 0 1.13 0 2.047-0.916 2.047-2.047v0-2.73c0-1.13-0.916-2.047-2.047-2.047-0 0-0 0-0.001 0h-0.682v-17.016l3.876-3.671c0.265 0.134 0.579 0.212 0.91 0.212 1.137 0 2.058-0.921 2.058-2.058s-0.922-2.058-2.058-2.058c-1.137 0-2.058 0.921-2.058 2.058 0 0.316 0.071 0.615 0.198 0.882l-0.005-0.012-2.92 2.768v-1.574c0-1.13-0.916-2.047-2.047-2.047v0h-27.292c-0 0-0 0-0.001 0-1.13 0-2.047 0.916-2.047 2.047 0 0 0 0 0 0.001v-0 20.468h-0.682c-1.13 0-2.047 0.916-2.047 2.047 0 0 0 0 0 0.001v-0 2.73c0 1.13 0.916 2.047 2.047 2.047v0zM38.892 1.711c0.377 0 0.683 0.306 0.683 0.683s-0.306 0.683-0.683 0.683v0c-0.377 0-0.683-0.306-0.683-0.683s0.306-0.683 0.683-0.683v0zM4.094 4.44c0-0.378 0.305-0.682 0.682-0.682h27.292c0.377 0 0.682 0.305 0.682 0.682v2.865l-1.364 1.297v-2.797c0-0.377-0.305-0.682-0.682-0.682h-24.563c-0.377 0-0.682 0.305-0.682 0.682v17.057c0 0.378 0.305 0.683 0.682 0.683h24.563c0.377 0 0.682-0.306 0.682-0.683v-12.383l1.364-1.293v15.722h-28.657v-20.468zM10.235 13.31c-0.002 0-0.004 0-0.006 0-1.13 0-2.047 0.916-2.047 2.047s0.916 2.047 2.047 2.047c0.553 0 1.055-0.219 1.423-0.576l-0.001 0.001 2.372 1.19c0.275 0.138 0.61 0.073 0.815-0.157l5.041-5.672 4.956 3.714c0.266 0.199 0.637 0.178 0.878-0.051l4.307-4.080v10.408h-23.197v-15.693h23.199v3.405l-4.828 4.572-4.998-3.747c-0.113-0.085-0.255-0.136-0.409-0.136-0.202 0-0.384 0.088-0.509 0.228l-0.001 0.001-5.111 5.75-1.911-0.956c0.014-0.082 0.023-0.164 0.026-0.248-0-1.13-0.916-2.046-2.047-2.047h-0zM10.917 15.357c0 0.377-0.306 0.683-0.683 0.683s-0.683-0.306-0.683-0.683v0c0-0.377 0.306-0.683 0.683-0.683s0.683 0.306 0.683 0.683v0zM15.011 26.274h6.823v0.682c0 0.377-0.305 0.682-0.682 0.682h-5.459c-0.377 0-0.682-0.305-0.682-0.682v0-0.682zM1.364 26.957c0-0.377 0.306-0.682 0.682-0.682h11.599v0.682c0 0 0 0 0 0.001 0 1.13 0.916 2.047 2.047 2.047h5.459c1.13 0 2.047-0.916 2.047-2.047 0-0 0-0 0-0.001v0-0.682h11.598c0.378 0 0.683 0.305 0.683 0.682v2.73c0 0.376-0.306 0.682-0.683 0.682h-32.75c-0.377 0-0.682-0.305-0.682-0.682v0-2.73z"></path>
</symbol>
</defs>
</svg>
